<svg width="100%" height="100%" viewBox="0 0 115 141" xmlns="http://www.w3.org/2000/svg" xml:space="preserve" fill-rule="evenodd" clip-rule="evenodd" stroke-linejoin="round" stroke-miterlimit="2"><path d="M115 30.786C115 13.977 101.353.331 84.544.331H30.455C13.647.33 0 13.977 0 30.786v79.428c0 16.808 13.647 30.455 30.455 30.455h54.09c16.808 0 30.455-13.647 30.455-30.455V30.786Zm-1.462.73c0-16.404-13.32-29.724-29.724-29.724H31.186c-16.405 0-29.724 13.32-29.724 29.725v77.966c0 16.405 13.32 29.725 29.724 29.725h52.628c16.405 0 29.724-13.32 29.724-29.725V31.517Z"/></svg>
