<svg width="396" height="476" xmlns="http://www.w3.org/2000/svg"><path d="M113.872 0h-1.96l-1.92.015-1.882.02-1.845.026-1.807.036-1.77.043-.873.025-1.718.055-.846.031-1.667.069-.822.038-1.618.081-1.587.09L92 .63l-1.527.11-1.497.117c-.247.02-.493.041-.738.063l-1.455.132-.718.07-1.415.146-.698.077-1.377.162c-.682.083-1.355.17-2.02.26l-1.317.188c-.435.064-.867.13-1.295.197l-1.274.207c-4.21.71-8.076 1.596-11.737 2.681l-1.092.332a85.612 85.612 0 0 0-7.886 2.88l-1.022.438c-1.699.741-3.38 1.537-5.06 2.391l-1.008.52c-.337.175-.673.353-1.01.533C32.5 20.35 20.338 32.52 12.125 47.885c-.18.337-.357.673-.532 1.01l-.52 1.009a95.283 95.283 0 0 0-2.39 5.063l-.437 1.023a85.733 85.733 0 0 0-2.879 7.89l-.331 1.093c-1.084 3.663-1.97 7.532-2.68 11.745l-.207 1.274c-.067.428-.133.86-.197 1.296l-.186 1.318c-.091.665-.178 1.339-.261 2.021l-.161 1.378c-.027.232-.052.464-.077.698L1.12 86.12l-.07.718-.132 1.456-.062.739-.118 1.498-.109 1.527-.1 1.558-.09 1.587-.082 1.62-.072 1.652-.034.838-.06 1.702-.026.864-.048 1.754-.02.89-.036 1.809-.027 1.845-.019 1.883L0 111.981V364.019l.015 1.922.02 1.883.026 1.845.036 1.808.043 1.772.025.873.055 1.72.031.846.069 1.668.037.822.082 1.62.09 1.587.1 1.558.109 1.527.118 1.498c.02.247.04.494.062.739l.132 1.456.07.718.147 1.416c.025.234.05.466.077.698l.16 1.378c.084.682.171 1.356.262 2.02l.186 1.32c.064.435.13.867.197 1.295l.208 1.274c.709 4.213 1.595 8.082 2.679 11.745l.331 1.093a85.733 85.733 0 0 0 2.879 7.89l.437 1.023c.741 1.7 1.537 3.382 2.39 5.063l.52 1.01c.175.336.353.672.533 1.01 8.212 15.364 20.374 27.534 35.73 35.751.336.18.672.358 1.009.533l1.008.52c1.68.854 3.361 1.65 5.06 2.391l1.022.438a85.613 85.613 0 0 0 7.886 2.88l1.092.332c3.661 1.085 7.527 1.971 11.737 2.68l1.274.208c.428.068.86.133 1.295.197l1.318.187c.664.091 1.337.178 2.02.261l1.376.162.698.077 1.415.146.718.07 1.455.132c.245.022.491.042.738.063l1.497.118 1.527.109 1.556.1 1.587.09 1.618.081 1.651.073.838.034 1.701.06.863.026 1.754.048.89.02 1.806.036 1.845.027 1.881.019 1.92.015H284.089l1.92-.015 1.882-.02 1.845-.026 1.807-.036 1.77-.043.873-.025 1.718-.055.846-.031 1.667-.07c.275-.011.55-.024.822-.037l1.618-.081 1.587-.09 1.556-.1 1.527-.11 1.497-.117c.247-.02.493-.041.738-.063l1.455-.132.718-.07 1.415-.146.698-.077 1.377-.162c.682-.083 1.355-.17 2.02-.26l1.317-.188c.435-.064.867-.13 1.295-.197l1.274-.207c4.21-.71 8.076-1.596 11.737-2.681l1.092-.332a85.613 85.613 0 0 0 7.886-2.88l1.022-.438c1.699-.741 3.38-1.537 5.06-2.391l1.008-.52c.337-.175.673-.353 1.01-.533 15.355-8.217 27.517-20.387 35.73-35.752.18-.337.357-.673.532-1.01l.52-1.009a95.284 95.284 0 0 0 2.39-5.063l.437-1.023a85.733 85.733 0 0 0 2.879-7.89l.331-1.093c1.084-3.663 1.97-7.532 2.68-11.745l.207-1.274c.067-.428.133-.86.197-1.296l.186-1.318c.091-.665.178-1.339.261-2.021l.161-1.378c.027-.232.052-.464.077-.698l.147-1.416.07-.718.132-1.456.062-.739.118-1.498.109-1.527.1-1.558.09-1.587.082-1.62.072-1.652.034-.838.06-1.702.026-.864.048-1.754.02-.89.036-1.809.027-1.845.019-1.883.015-1.922V111.981l-.015-1.922-.02-1.883-.026-1.845-.036-1.808-.043-1.772a327.1 327.1 0 0 0-.025-.873l-.055-1.72-.031-.846-.069-1.668-.037-.822-.082-1.62-.09-1.587-.1-1.558-.109-1.527-.118-1.498c-.02-.247-.04-.494-.062-.739l-.132-1.456-.07-.718-.147-1.416c-.025-.234-.05-.466-.077-.698l-.16-1.378a141.17 141.17 0 0 0-.262-2.02l-.186-1.32c-.064-.435-.13-.867-.197-1.295l-.208-1.274c-.709-4.213-1.595-8.082-2.679-11.745l-.331-1.093a85.733 85.733 0 0 0-2.879-7.89l-.437-1.023a95.283 95.283 0 0 0-2.39-5.063l-.52-1.01a109.65 109.65 0 0 0-.533-1.01c-8.212-15.364-20.374-27.534-35.73-35.751-.336-.18-.672-.358-1.009-.533l-1.008-.52a95.172 95.172 0 0 0-5.06-2.391l-1.022-.438a85.613 85.613 0 0 0-7.886-2.88l-1.092-.332c-3.661-1.085-7.527-1.971-11.737-2.68l-1.274-.208c-.428-.068-.86-.133-1.295-.197l-1.318-.187c-.664-.091-1.337-.178-2.02-.261l-1.376-.162-.698-.077-1.415-.146-.718-.07-1.455-.132c-.245-.022-.491-.042-.738-.063l-1.497-.118-1.527-.109-1.556-.1-1.587-.09-1.618-.081-1.651-.073-.838-.034-1.701-.06-.863-.026-1.754-.048-.89-.02-1.806-.036-1.845-.027-1.881-.019-1.92-.015H113.871zm168.256 18.67h1.961l1.912.017.938.009 1.839.025.902.015 1.768.037 1.724.046.845.025 1.657.058 1.614.065 1.571.074.771.04 1.51.086 1.472.093 1.433.102 1.396.11.684.058 1.341.122c.882.084 1.742.173 2.58.268l1.239.146c1.02.124 2.006.257 2.962.398l1.133.174c.56.088 1.108.18 1.647.274l1.064.193.522.1 1.026.204.504.105.99.216c.326.074.648.148.967.224l.946.232c.312.078.62.158.925.239l.905.247.446.126.878.259c1.16.35 2.273.719 3.351 1.109l.803.296.791.304.391.155.775.315.384.16.761.326.753.333.746.341.371.174.738.352.733.36.73.366.365.186.727.378.726.385c12.104 6.477 21.603 15.982 28.076 28.093l.385.727.377.727.553 1.095.359.734.352.738.344.744.337.75.33.757c.108.254.216.51.322.766l.315.775.154.392.304.791.296.803a65.5 65.5 0 0 1 1.109 3.354l.258.878.126.446.247.906c.08.306.16.614.239.926l.231.946c.076.32.15.642.224.968l.216.99.105.505.205 1.027.099.522.193 1.065c.094.539.185 1.088.274 1.648l.173 1.133c.141.957.274 1.944.399 2.964l.145 1.24c.095.839.184 1.698.268 2.581l.122 1.343.058.684.11 1.396.101 1.434.094 1.473.086 1.511.04.771.073 1.573.066 1.615.057 1.658.05 1.702.021.868.037 1.77.016.902.024 1.84.017 1.889.005.963.004 1.962v248.116c0 .662 0 1.317-.004 1.962l-.012 1.913-.01.938-.024 1.84-.016.903-.037 1.77-.045 1.725-.026.845-.057 1.658-.066 1.615-.073 1.573-.04.77-.086 1.512-.094 1.473-.101 1.434-.11 1.396-.058.684-.122 1.343c-.084.883-.173 1.742-.268 2.58l-.145 1.24a120.48 120.48 0 0 1-.399 2.965l-.173 1.133c-.089.56-.18 1.109-.274 1.648l-.193 1.065c-.033.175-.066.35-.1.522l-.204 1.027-.105.504-.216.99c-.073.327-.148.65-.224.969l-.231.946c-.079.312-.158.62-.24.926l-.246.906-.126.446-.258.878a65.5 65.5 0 0 1-1.11 3.354l-.295.803-.304.791c-.05.131-.102.262-.154.392l-.315.775-.16.384-.326.762-.333.753-.341.747a73.97 73.97 0 0 1-.173.37l-.352.74-.36.733-.366.73-.186.365-.377.727-.385.727c-6.473 12.111-15.972 21.616-28.076 28.093l-.726.385-.727.378-1.095.553-.733.36-.738.351-.743.345-.75.337-.756.33c-.254.109-.51.216-.766.322l-.775.315-.39.155-.792.304-.803.296c-1.078.39-2.192.76-3.35 1.11l-.879.258-.446.126-.905.247c-.305.081-.613.16-.925.24l-.946.23c-.319.077-.641.151-.967.225l-.99.216-.504.105-1.026.204-.522.1-1.064.193c-.539.094-1.088.186-1.647.274l-1.133.174c-.956.14-1.942.274-2.962.398l-1.24.146c-.837.095-1.697.184-2.579.268l-1.341.122-.684.058-1.396.11-1.433.102-1.471.093-1.511.086-.77.04-1.572.074-1.614.065-1.657.058-1.701.05-.868.02-1.768.038-.902.015-1.84.025-1.887.016c-.318.003-.639.004-.962.01H111.911l-1.912-.017-.938-.009-1.839-.025-.902-.015-1.768-.037-1.724-.046-.845-.025-1.657-.058-1.614-.065-1.571-.074-.771-.04-1.51-.086-1.472-.093-1.433-.102-1.396-.11-.684-.058-1.341-.122a147.45 147.45 0 0 1-2.58-.268l-1.239-.146c-1.02-.124-2.006-.257-2.962-.398l-1.133-.174c-.56-.088-1.108-.18-1.647-.274l-1.064-.193-.522-.1-1.026-.204a84.99 84.99 0 0 1-.504-.105l-.99-.216a78.832 78.832 0 0 1-.967-.224l-.946-.232c-.312-.078-.62-.158-.925-.239l-.905-.247-.446-.126-.878-.259a65.403 65.403 0 0 1-3.351-1.109l-.803-.296-.791-.304-.391-.155-.775-.315a66.45 66.45 0 0 1-.384-.16l-.761-.326-.753-.333-.746-.341a73.945 73.945 0 0 1-.371-.174l-.738-.352-.733-.36-.73-.366a89.877 89.877 0 0 1-.365-.186l-.727-.378-.726-.385c-12.104-6.477-21.603-15.982-28.076-28.093l-.385-.727-.377-.727-.553-1.095-.359-.734-.352-.738-.344-.744-.337-.75-.33-.757a66.864 66.864 0 0 1-.322-.766l-.315-.775-.154-.392-.304-.791-.296-.803a65.5 65.5 0 0 1-1.109-3.354l-.258-.878a69.614 69.614 0 0 1-.126-.446l-.247-.906a73.37 73.37 0 0 1-.239-.926l-.231-.946a78.95 78.95 0 0 1-.224-.968l-.216-.99-.105-.505-.205-1.027a91.364 91.364 0 0 1-.099-.522l-.193-1.065c-.094-.539-.185-1.088-.274-1.648l-.173-1.133a120.48 120.48 0 0 1-.399-2.964l-.145-1.24a147.72 147.72 0 0 1-.268-2.581l-.122-1.343-.058-.684-.11-1.396-.101-1.434-.094-1.473-.086-1.511-.04-.771-.073-1.573-.066-1.615-.057-1.658-.05-1.702-.021-.868-.037-1.77-.016-.902-.024-1.84-.017-1.889-.005-.963-.004-1.962V113.942c0-.662 0-1.317.004-1.962l.012-1.913.01-.938.024-1.84.016-.903.037-1.77.045-1.725.026-.845.057-1.658.066-1.615.073-1.573.04-.77.086-1.512.094-1.473.101-1.434.11-1.396.058-.684.122-1.343c.084-.883.173-1.742.268-2.58l.145-1.24c.125-1.021.258-2.008.399-2.965l.173-1.133c.089-.56.18-1.109.274-1.648l.193-1.065c.033-.175.066-.35.1-.522l.204-1.027.105-.504.216-.99c.073-.327.148-.65.224-.969l.231-.946c.079-.312.158-.62.24-.926l.246-.906.126-.446.258-.878a65.5 65.5 0 0 1 1.11-3.354l.295-.803.304-.791c.05-.131.102-.262.154-.392l.315-.775.16-.384.326-.762.333-.753.341-.747.173-.37.352-.74.36-.733.366-.73.186-.365.377-.727.385-.727c6.473-12.111 15.972-21.616 28.076-28.093l.726-.385.727-.378 1.095-.553.733-.36.738-.351.743-.345.75-.337.756-.33c.254-.109.51-.216.766-.322l.775-.315.39-.155.792-.304.803-.296c1.078-.39 2.192-.76 3.35-1.11l.879-.258.446-.126.905-.247c.305-.081.613-.16.925-.24l.946-.23c.319-.077.641-.151.967-.225l.99-.216.504-.105 1.026-.204.522-.1 1.064-.193c.539-.094 1.088-.186 1.647-.274l1.133-.174c.956-.14 1.942-.274 2.962-.398l1.24-.146c.837-.095 1.697-.184 2.579-.268l1.341-.122.684-.058 1.396-.11 1.433-.102 1.471-.093 1.511-.086.77-.04 1.572-.074 1.614-.065 1.657-.058 1.701-.05.868-.02 1.768-.038.902-.015 1.84-.025 1.887-.016c.318-.003.639-.004.962-.01h170.217z" fill="#000" fill-rule="nonzero"/></svg>